<svg width="19" height="19" viewBox="0 0 39 39" version="1.1" xmlns="http://www.w3.org/2000/svg" xmlns:xlink="http://www.w3.org/1999/xlink"><title>Promptmack logo</title><g id="Page-1" stroke="none" stroke-width="1" fill="none" fill-rule="evenodd"><g id="PromptPlug-One-Copy-3"><path d="M16.72125,0 C18.3137998,0 19.9062002,0 21.49875,0 C29.5679475,1.37414337 34.9178517,5.95258584 37.5481641,13.7353125 C37.8042082,14.7443354 38.0281535,15.739623 38.22,16.72125 C38.22,18.3137998 38.22,19.9062002 38.22,21.49875 C37.5542852,26.3638873 35.3646973,30.3949029 31.6509375,33.5917969 C29.8014478,31.6927406 27.9601695,29.8015971 26.1269531,27.9185156 C26.4851163,27.500783 26.7339942,27.0031765 26.8734375,26.4255469 C21.7476279,26.4255469 16.621669,26.4255469 11.4958594,26.4255469 C10.32364,26.4740684 9.17904061,26.4243525 8.06203125,26.27625 C15.5767402,26.3011826 23.0914491,26.27625 30.6058594,26.2016016 C30.7302237,26.0772373 30.8547373,25.9527237 30.9791016,25.8283594 C31.05375,24.7844756 31.0785333,23.7393975 31.05375,22.693125 C31.5243337,22.7738946 31.8975759,22.6245977 32.1734766,22.2452344 C32.2976916,20.9484417 32.272759,19.6544857 32.0988281,18.3635156 C31.76082,18.1591282 31.4125104,18.0098313 31.05375,17.915625 C31.0785333,16.8693525 31.05375,15.8242744 30.9791016,14.7803906 C30.9477492,14.5477712 30.8731008,14.3486987 30.7551562,14.1832031 C29.1010962,8.92526578 25.5179712,6.08862516 20.0057812,5.67328125 C20.0057812,5.57374502 19.9560654,5.52398438 19.8564844,5.52398438 C19.9053045,4.8202437 19.8554393,4.12351997 19.7071875,3.43382813 C19.5865556,3.38790441 19.4869746,3.31325597 19.4085938,3.20988281 C17.6170313,3.11034659 15.8254687,3.11034659 14.0339062,3.20988281 C13.6429127,3.48705246 13.5184886,3.86029465 13.6606641,4.32960937 C14.1587483,4.95184889 14.6812874,5.54903639 15.2282813,6.12117187 C13.9969702,6.58745587 12.8523708,7.20953116 11.7944531,7.98738281 C10.7591241,8.94716763 9.81358219,9.96735797 8.9578125,11.0479688 C9.00206409,10.6355361 9.15136097,10.2622939 9.40570313,9.92824219 C8.13588841,8.48427267 6.79221654,7.11572794 5.3746875,5.82257813 C8.45774262,2.53915167 12.2399251,0.59829379 16.72125,0 Z" id="Path" fill="#2F3943" opacity="0.995"></path><path d="M19.8564844,5.52398438 C19.9042594,7.10385884 19.8545435,8.67147602 19.7071875,10.2268359 C19.1294086,10.3966014 18.8557474,10.1726561 18.8860547,9.555 C17.9898255,8.83282116 17.1686927,8.03657613 16.4226563,7.16625 C16.086589,6.74899509 15.6884142,6.4006407 15.2282813,6.12117187 C14.6812874,5.54903639 14.1587483,4.95184889 13.6606641,4.32960938 C13.5184886,3.86029465 13.6429127,3.48705246 14.0339062,3.20988281 C15.8254688,3.11034659 17.6170313,3.11034659 19.4085938,3.20988281 C19.4869746,3.31325597 19.5865556,3.38790441 19.7071875,3.43382812 C19.8554393,4.12351997 19.9053045,4.8202437 19.8564844,5.52398438 Z" id="Path" fill="#FB7B4A"></path><path d="M20.0057812,5.67328125 C25.5179712,6.08862516 29.1010962,8.92526578 30.7551562,14.1832031 C30.8574246,15.4247559 30.9071405,16.6688468 30.9044531,17.915625 C30.8554837,19.5348989 30.9053489,21.1274487 31.05375,22.693125 C31.0785333,23.7393975 31.05375,24.7844756 30.9791016,25.8283594 C30.8547373,25.9527237 30.7302237,26.0772373 30.6058594,26.2016016 C23.0914491,26.27625 15.5767402,26.3011826 8.06203125,26.27625 C7.81221279,26.1503927 7.63802812,25.95138 7.53949219,25.6790625 C7.46490347,24.6850439 7.44001568,23.6896816 7.46484375,22.693125 C7.66390127,21.1005752 7.66390127,19.5081748 7.46484375,17.915625 C7.46484375,17.0695596 7.46484375,16.2236435 7.46484375,15.3775781 C7.67741264,15.0767449 7.77694887,14.7284652 7.7634375,14.3325 C7.84156455,13.8264135 7.96597364,13.3287622 8.13667969,12.8395313 C8.45342794,12.2627676 8.7271339,11.6655801 8.9578125,11.0479687 C9.81358219,9.96735797 10.7591241,8.94716763 11.7944531,7.98738281 C12.8523708,7.20953116 13.9969702,6.58745587 15.2282812,6.12117187 C15.6884142,6.4006407 16.086589,6.74899509 16.4226562,7.16625 C14.8915571,7.38438766 13.5478852,8.00646295 12.3916406,9.03246094 C11.1680632,9.97839101 10.2722819,11.1478782 9.70429687,12.5409375 C9.23336974,13.305651 8.93477599,14.1516716 8.80851562,15.0789844 C8.65959199,18.4372683 8.60983134,21.8213805 8.65921875,25.2311719 C15.7258877,25.2311719 22.792706,25.2311719 29.859375,25.2311719 C30.0330073,21.9721704 30.0579398,18.6876391 29.9340234,15.3775781 C29.8993866,15.1928979 29.8247381,15.043601 29.7100781,14.9296875 C29.0365999,11.8919589 27.3446184,9.60274514 24.6339844,8.06203125 C23.1984949,7.30249833 21.6558103,6.90438328 20.0057812,6.86765625 C20.0057812,6.46952627 20.0057812,6.07141123 20.0057812,5.67328125 Z" id="Path" fill="#F6F6F6"></path><path d="M5.3746875,5.82257812 C6.79221654,7.11572794 8.13588841,8.48427267 9.40570313,9.92824219 C9.15136097,10.2622939 9.00206409,10.6355361 8.9578125,11.0479687 C8.7271339,11.6655801 8.45342794,12.2627676 8.13667969,12.8395313 C7.96597364,13.3287622 7.84156455,13.8264135 7.7634375,14.3325 C7.66390127,14.4817969 7.56437998,14.6310937 7.46484375,14.7803906 C7.48876111,14.5267054 7.46387332,14.2778723 7.39019531,14.0339062 C5.79648103,12.4650798 4.22886384,10.8725897 2.68734375,9.25640625 C3.35982166,7.93699512 4.25560291,6.79238077 5.3746875,5.82257812 Z" id="Path" fill="#191E29" opacity="0.996"></path><path d="M19.8564844,5.52398438 C19.9560654,5.52398438 20.0057812,5.57374502 20.0057812,5.67328125 C20.0057812,6.07141123 20.0057812,6.46952627 20.0057812,6.86765625 C21.6558103,6.90438328 23.1984949,7.30249833 24.6339844,8.06203125 C20.4187364,11.9542157 15.4422237,13.4471845 9.70429687,12.5409375 C10.2722819,11.1478782 11.1680632,9.97839101 12.3916406,9.03246094 C13.5478852,8.00646295 14.8915571,7.38438766 16.4226562,7.16625 C17.1686927,8.03657613 17.9898255,8.83282116 18.8860547,9.555 C18.8557474,10.1726561 19.1294086,10.3966014 19.7071875,10.2268359 C19.8545435,8.67147602 19.9042594,7.10385884 19.8564844,5.52398438 Z" id="Path" fill="#677179"></path><path d="M24.6339844,8.06203125 C27.3446184,9.60274514 29.0365999,11.8919589 29.7100781,14.9296875 C29.7100781,15.1287002 29.7100781,15.3278623 29.7100781,15.526875 C29.7100781,18.7118252 29.7100781,21.8969248 29.7100781,25.081875 C22.7428409,25.081875 15.7757529,25.081875 8.80851563,25.081875 C8.80851563,21.7476279 8.80851563,18.4132315 8.80851563,15.0789844 C8.93477599,14.1516716 9.23336974,13.305651 9.70429688,12.5409375 C15.4422237,13.4471845 20.4187364,11.9542157 24.6339844,8.06203125 Z" id="Path" fill="#232D37"></path><path d="M2.68734375,9.25640625 C4.22886384,10.8725897 5.79648103,12.4650798 7.39019531,14.0339062 C7.46387332,14.2778723 7.48876111,14.5267054 7.46484375,14.7803906 C7.46484375,14.9794481 7.46484375,15.1785654 7.46484375,15.3775781 C7.46484375,16.2236435 7.46484375,17.0695596 7.46484375,17.915625 C6.99431972,17.8348554 6.62107753,17.9841523 6.34511719,18.3635156 C6.24558096,19.6076065 6.24558096,20.8518466 6.34511719,22.0959375 C6.54195019,22.609668 6.91519237,22.8088301 7.46484375,22.693125 C7.44001568,23.6896816 7.46490347,24.6850439 7.53949219,25.6790625 C7.63802812,25.95138 7.81221279,26.1503927 8.06203125,26.27625 C9.17904061,26.4243525 10.32364,26.4740684 11.4958594,26.4255469 C11.4699713,26.9734664 11.7188044,27.3467086 12.2423438,27.5452734 C15.1282523,27.6199219 18.0147581,27.6448545 20.9015625,27.6199219 C20.9015625,27.8687998 20.9015625,28.1175284 20.9015625,28.3664062 C19.2325727,28.3174369 17.5903071,28.3671527 15.9747656,28.5157031 C15.9395316,28.9798671 15.9892474,29.4277577 16.1240625,29.859375 C15.7875473,29.9525362 15.5386695,30.151549 15.3775781,30.4565625 C15.0815224,30.6015298 14.7828988,30.7508266 14.4817969,30.9044531 C13.2726415,31.1236209 12.1778027,31.5715116 11.1972656,32.248125 C10.0010543,32.8968199 8.9062155,33.6931695 7.91273438,34.636875 C3.44172593,31.3692143 0.804154772,26.9897398 0,21.49875 C0,19.9062002 0,18.3137998 0,16.72125 C0.392213341,14.0516427 1.28799459,11.5633565 2.68734375,9.25640625 Z" id="Path" fill="#12121B"></path><path d="M7.7634375,14.3325 C7.77694887,14.7284652 7.67741264,15.0767449 7.46484375,15.3775781 C7.46484375,15.1785654 7.46484375,14.9794481 7.46484375,14.7803906 C7.56437998,14.6310937 7.66390127,14.4817969 7.7634375,14.3325 Z" id="Path" fill="#636568"></path><path d="M30.7551562,14.1832031 C30.8731008,14.3486987 30.9477492,14.5477712 30.9791016,14.7803906 C31.05375,15.8242744 31.0785333,16.8693525 31.05375,17.915625 C31.0040341,17.915625 30.954169,17.915625 30.9044531,17.915625 C30.9071405,16.6688468 30.8574246,15.4247559 30.7551562,14.1832031 Z" id="Path" fill="#ABB1B4"></path><path d="M7.46484375,17.915625 C7.66390127,19.5081748 7.66390127,21.1005752 7.46484375,22.693125 C6.91519237,22.8088301 6.54195019,22.609668 6.34511719,22.0959375 C6.24558096,20.8518466 6.24558096,19.6076065 6.34511719,18.3635156 C6.62107753,17.9841523 6.99431972,17.8348554 7.46484375,17.915625 Z" id="Path" fill="#30E3DD"></path><path d="M30.9044531,17.915625 C30.954169,17.915625 31.0040341,17.915625 31.05375,17.915625 C31.4125104,18.0098313 31.76082,18.1591282 32.0988281,18.3635156 C32.272759,19.6544857 32.2976916,20.9484417 32.1734766,22.2452344 C31.8975759,22.6245977 31.5243337,22.7738946 31.05375,22.693125 C30.9053489,21.1274487 30.8554837,19.5348989 30.9044531,17.915625 Z" id="Path" fill="#34EDE5"></path><path d="M29.7100781,14.9296875 C29.8247381,15.043601 29.8993866,15.1928979 29.9340234,15.3775781 C30.0579398,18.6876391 30.0330073,21.9721704 29.859375,25.2311719 C29.9087923,21.9705281 29.8589271,18.735862 29.7100781,15.526875 C29.7100781,15.3278623 29.7100781,15.1287002 29.7100781,14.9296875 Z" id="Path" fill="#D5D7DA"></path><path d="M8.80851562,15.0789844 C8.80851562,18.4132315 8.80851562,21.7476279 8.80851562,25.081875 C15.7757529,25.081875 22.7428409,25.081875 29.7100781,25.081875 C29.7100781,21.8969248 29.7100781,18.7118252 29.7100781,15.526875 C29.8589271,18.735862 29.9087923,21.9705281 29.859375,25.2311719 C22.792706,25.2311719 15.7258877,25.2311719 8.65921875,25.2311719 C8.60983134,21.8213805 8.65959199,18.4372683 8.80851562,15.0789844 Z" id="Path" fill="#575F65"></path><path d="M24.4846875,18.2142188 C25.8337341,18.1289702 26.8041638,18.6762926 27.3959766,19.8564844 C27.6032006,21.2579341 27.0309457,22.1784987 25.6790625,22.6184766 C23.6160783,22.6580402 22.7450803,21.6378947 23.0663672,19.5578906 C23.4255755,18.9744384 23.8982494,18.5265478 24.4846875,18.2142188 Z" id="Path" fill="#F67949"></path><path d="M12.5409375,18.2142188 C13.81123,18.1401675 14.7816596,18.637774 15.4522266,19.7071875 C15.5250834,21.9741113 14.4550877,22.8946758 12.2423438,22.4691797 C10.5794901,20.9029062 10.6790263,19.4845859 12.5409375,18.2142188 Z" id="Path" fill="#F67949"></path><path d="M11.4958594,26.4255469 C16.621669,26.4255469 21.7476279,26.4255469 26.8734375,26.4255469 C26.7339942,27.0031765 26.4851163,27.500783 26.1269531,27.9185156 C26.0091579,27.8762646 25.9095769,27.8016162 25.8283594,27.6945703 C24.1868402,27.6199219 22.5445746,27.5949893 20.9015625,27.6199219 C18.0147581,27.6448545 15.1282523,27.6199219 12.2423437,27.5452734 C11.7188044,27.3467086 11.4699713,26.9734664 11.4958594,26.4255469 Z" id="Path" fill="#222C37"></path><path d="M20.9015625,27.6199219 C22.5445746,27.5949893 24.1868402,27.6199219 25.8283594,27.6945703 C25.9095769,27.8016162 26.0091579,27.8762646 26.1269531,27.9185156 C27.9601695,29.8015971 29.8014478,31.6927406 31.6509375,33.5917969 C31.1879679,34.104333 30.6404962,34.5025078 30.0086719,34.7861719 C28.9991264,33.8258944 27.9041831,32.9799783 26.7241406,32.248125 C25.907636,32.0803153 25.1611516,31.756789 24.4846875,31.2776953 C24.3135933,30.9576028 24.089648,30.6839416 23.8128516,30.4565625 C23.6635547,30.5561435 23.5142578,30.6555752 23.3649609,30.7551562 C23.1950611,30.6821501 23.0208316,30.6324342 22.8424219,30.6058594 C22.4911263,30.48045 22.1925326,30.281288 21.9466406,30.0086719 C21.8790091,29.8656455 21.7795774,29.7411319 21.6480469,29.6354297 C21.7876395,29.2799538 21.8373553,28.9067116 21.7973437,28.5157031 C20.3540909,28.5157031 18.9109873,28.5157031 17.4677344,28.5157031 C16.9701279,28.5157031 16.4723721,28.5157031 15.9747656,28.5157031 C17.5903071,28.3671527 19.2325727,28.3174369 20.9015625,28.3664063 C20.9015625,28.1175284 20.9015625,27.8687998 20.9015625,27.6199219 Z" id="Path" fill="#1A1F29"></path><path d="M15.9747656,28.5157031 C16.4723721,28.5157031 16.9701279,28.5157031 17.4677344,28.5157031 C17.4677344,28.8640127 17.4677344,29.2124716 17.4677344,29.5607813 C18.8385783,29.5119612 20.1822502,29.5618263 21.49875,29.7100781 C19.6952438,29.6634975 17.9036813,29.7132134 16.1240625,29.859375 C15.9892474,29.4277577 15.9395316,28.9798671 15.9747656,28.5157031 Z" id="Path" fill="#425C64"></path><path d="M17.4677344,28.5157031 C18.9109873,28.5157031 20.3540909,28.5157031 21.7973437,28.5157031 C21.8373553,28.9067116 21.7876395,29.2799538 21.6480469,29.6354297 C21.7795774,29.7411319 21.8790091,29.8656455 21.9466406,30.0086719 C21.7186643,30.0195705 21.5693674,29.9199895 21.49875,29.7100781 C20.1822502,29.5618263 18.8385783,29.5119612 17.4677344,29.5607813 C17.4677344,29.2124716 17.4677344,28.8640127 17.4677344,28.5157031 Z" id="Path" fill="#212D36"></path><path d="M23.1410156,35.2340625 C23.1410156,35.3833594 23.1410156,35.5326563 23.1410156,35.6819531 C22.8921377,35.6819531 22.6434091,35.6819531 22.3945312,35.6819531 C22.3945312,35.930831 22.3945312,36.1795596 22.3945312,36.4284375 C22.6434091,36.4284375 22.8921377,36.4284375 23.1410156,36.4284375 C23.1410156,36.926044 23.1410156,37.4237998 23.1410156,37.9214062 C22.5647297,37.9673897 22.0174073,38.0669707 21.49875,38.22 C19.9062002,38.22 18.3137998,38.22 16.72125,38.22 C16.0422478,38.0720468 15.3454793,37.9227499 14.6310937,37.7721094 C14.6310937,37.3242188 14.6310937,36.8763281 14.6310937,36.4284375 C14.9169525,36.4708378 15.1657259,36.421122 15.3775781,36.2791406 C15.3775781,36.1298437 15.3775781,35.9805469 15.3775781,35.83125 C15.0789844,35.83125 14.7803906,35.83125 14.4817969,35.83125 C14.4817969,34.1889844 14.4817969,32.5467187 14.4817969,30.9044531 C14.7828988,30.7508266 15.0815224,30.6015298 15.3775781,30.4565625 C15.6885635,30.2941275 16.0119405,30.1448306 16.3480078,30.0086719 C16.6113675,30.3313024 16.8850287,30.356235 17.1691406,30.0833203 C16.9701279,30.0336045 16.7709659,29.9837393 16.5719531,29.9340234 C16.9202627,29.8344424 17.2687216,29.8344424 17.6170313,29.9340234 C19.413222,31.6469065 21.1550686,33.3887531 22.8424219,35.1594141 C22.9311042,35.2286878 23.0306852,35.2536204 23.1410156,35.2340625 Z" id="Path" fill="#00F3EC"></path><path d="M21.49875,29.7100781 C21.5693674,29.9199895 21.7186643,30.0195705 21.9466406,30.0086719 C22.1925326,30.281288 22.4911263,30.48045 22.8424219,30.6058594 C22.8921377,30.7551562 22.9917187,30.8547373 23.1410156,30.9044531 C23.1410156,32.347706 23.1410156,33.7908096 23.1410156,35.2340625 C23.0306852,35.2536204 22.9311042,35.2286878 22.8424219,35.1594141 C21.1550686,33.3887531 19.413222,31.6469065 17.6170313,29.9340234 C17.2687216,29.8344424 16.9202627,29.8344424 16.5719531,29.9340234 C16.7709659,29.9837393 16.9701279,30.0336045 17.1691406,30.0833203 C16.8850287,30.356235 16.6113675,30.3313024 16.3480078,30.0086719 C16.0119405,30.1448306 15.6885635,30.2941275 15.3775781,30.4565625 C15.5386695,30.151549 15.7875473,29.9525362 16.1240625,29.859375 C17.9036812,29.7132134 19.6952437,29.6634975 21.49875,29.7100781 Z" id="Path" fill="#00C6BE"></path><path d="M14.4817969,30.9044531 C14.4817969,32.5467187 14.4817969,34.1889844 14.4817969,35.83125 C14.7803906,35.83125 15.0789844,35.83125 15.3775781,35.83125 C15.3775781,35.9805469 15.3775781,36.1298437 15.3775781,36.2791406 C15.0789844,36.2791406 14.7803906,36.2791406 14.4817969,36.2791406 C14.4817969,36.7767471 14.4817969,37.2745029 14.4817969,37.7721094 C12.6155561,37.2839086 10.8737542,36.5374242 9.25640625,35.5326563 C9.88073592,34.807372 10.6272203,34.2600497 11.4958594,33.8903906 C11.5824964,33.2709579 11.4829601,32.7234863 11.1972656,32.248125 C12.1778027,31.5715116 13.2726415,31.1236209 14.4817969,30.9044531 Z" id="Path" fill="#232E38" opacity="0.995"></path><path d="M26.7241406,32.248125 C26.5319955,32.452811 26.4325638,32.7266215 26.4255469,33.0692578 C26.4504795,33.342919 26.4752627,33.6167295 26.5001953,33.8903906 C27.301173,34.4012845 28.0227248,34.998472 28.665,35.6819531 C27.0157174,36.7041888 25.2241549,37.4009573 23.2903125,37.7721094 C23.2903125,37.2745029 23.2903125,36.7767471 23.2903125,36.2791406 C23.0414346,36.2791406 22.792706,36.2791406 22.5438281,36.2791406 C22.5438281,36.1298437 22.5438281,35.9805469 22.5438281,35.83125 C22.792706,35.83125 23.0414346,35.83125 23.2903125,35.83125 C23.3392819,34.1622602 23.289566,32.5199946 23.1410156,30.9044531 C22.9917188,30.8547373 22.8921377,30.7551562 22.8424219,30.6058594 C23.0208316,30.6324342 23.1950611,30.6821501 23.3649609,30.7551562 C23.5142578,30.6555752 23.6635547,30.5561435 23.8128516,30.4565625 C24.089648,30.6839416 24.3135933,30.9576028 24.4846875,31.2776953 C25.1611516,31.756789 25.907636,32.0803153 26.7241406,32.248125 Z" id="Path" fill="#222E38" opacity="0.997"></path><path d="M11.1972656,32.248125 C11.4829601,32.7234863 11.5824964,33.2709579 11.4958594,33.8903906 C10.6272203,34.2600497 9.88073592,34.807372 9.25640625,35.5326563 C8.72586487,35.3431985 8.27797425,35.0446048 7.91273437,34.636875 C8.9062155,33.6931695 10.0010543,32.8968199 11.1972656,32.248125 Z" id="Path" fill="#EDEEEE" opacity="0.975"></path><path d="M26.7241406,32.248125 C27.9041831,32.9799783 28.9991264,33.8258944 30.0086719,34.7861719 C29.6391621,35.1953946 29.1912715,35.4939884 28.665,35.6819531 C28.0227248,34.998472 27.301173,34.4012845 26.5001953,33.8903906 C26.4752627,33.6167295 26.4504795,33.342919 26.4255469,33.0692578 C26.4325638,32.7266215 26.5319955,32.452811 26.7241406,32.248125 Z" id="Path" fill="#F0F2F2" opacity="0.976"></path><path d="M23.1410156,30.9044531 C23.289566,32.5199946 23.3392819,34.1622602 23.2903125,35.83125 C23.0414346,35.83125 22.792706,35.83125 22.5438281,35.83125 C22.5438281,35.9805469 22.5438281,36.1298437 22.5438281,36.2791406 C22.792706,36.2791406 23.0414346,36.2791406 23.2903125,36.2791406 C23.2903125,36.7767471 23.2903125,37.2745029 23.2903125,37.7721094 C23.2903125,37.8716904 23.2405966,37.9214062 23.1410156,37.9214062 C23.1410156,37.4237998 23.1410156,36.926044 23.1410156,36.4284375 C22.8921377,36.4284375 22.6434091,36.4284375 22.3945312,36.4284375 C22.3945312,36.1795596 22.3945312,35.930831 22.3945312,35.6819531 C22.6434091,35.6819531 22.8921377,35.6819531 23.1410156,35.6819531 C23.1410156,35.5326562 23.1410156,35.3833594 23.1410156,35.2340625 C23.1410156,33.7908096 23.1410156,32.347706 23.1410156,30.9044531 Z" id="Path" fill="#049694"></path><path d="M15.3775781,36.2791406 C15.1657259,36.421122 14.9169525,36.4708378 14.6310938,36.4284375 C14.6310938,36.8763281 14.6310938,37.3242188 14.6310938,37.7721094 C14.5813331,37.7721094 14.5315575,37.7721094 14.4817969,37.7721094 C14.4817969,37.2745029 14.4817969,36.7767471 14.4817969,36.2791406 C14.7803906,36.2791406 15.0789844,36.2791406 15.3775781,36.2791406 Z" id="Path" fill="#09888B"></path></g></g></svg>